#N canvas 227 36 1049 699 10;
#X floatatom 51 22 5 0 0 0 - - -;
#X obj 200 188 bng 30 250 50 0 empty empty empty 17 7 0 10 -4034 -1
-1;
#X floatatom 556 -64 5 0 0 0 - - -;
#X obj -28 152 phasor~;
#X obj 46 64 expr $f1 / 60 / $f2;
#X text 52 4 BPM;
#X floatatom 91 22 5 0 0 0 - - -;
#X text 92 4 beats;
#X text 2 20 MASTER;
#X floatatom 32 109 5 0 0 0 - - -;
#X obj 60 246 hsl 128 15 0 1 0 0 empty empty empty -2 -8 0 10 -258113
-262144 -1 1565 1;
#X obj 195 278 bng 20 250 50 0 empty empty empty 17 7 0 10 -258113
-1 -1;
#X floatatom 47 217 5 0 0 0 - - -;
#X obj -36 284 edge~;
#X obj -42 199 change~;
#X obj -36 233 expr~ $v1==1;
#X text 595 -63 beats;
#X text 7 410 dsp ON/OFF;
#X floatatom -10 489 5 0 0 0 - - -;
#X obj -10 430 dsp;
#X obj -10 410 tgl 15 1 empty dsp_tgl empty 8 -8 0 10 -4034 -1 -1 1
1;
#X text 26 489 % mean-cpu-load;
#X obj -31 407 vsl 10 100 0 127 0 0 empty empty empty 0 -9 0 10 -261682
-260097 -1 886 1;
#X obj 679 -47 ctlin 7 1;
#X floatatom 679 -22 5 0 0 0 - - -;
#X text 678 -67 E1;
#X obj 681 0 hsl 50 15 0 127 0 0 empty empty empty -2 -8 0 10 -4034
-1 -1 1080 1;
#X obj 461 -9 hsl 128 15 0 1 0 0 empty empty empty -2 -8 0 10 -260097
-1 -1 1437 1;
#X obj -8 -121 loadbang;
#X msg 112 -103 16;
#X msg 82 -104 100;
#X floatatom 752 5 5 0 0 0 - - -;
#X text 751 -40 E5;
#X obj 752 -20 ctlin 7 5;
#X obj 753 28 hsl 50 15 0 127 0 0 empty empty empty -2 -8 0 10 -176105
-1 -1 4900 1;
#X obj 295 505 dac~;
#X obj 283 473 expr~ $v1+$v2;
#X msg 151 -105 64;
#X text 177 -108 init with defaults;
#X text 96 227 MASTER LOOP TIME;
#X obj 201 -86 send ctrl-default;
#X obj 956 122 receive ctrl-default;
#X text 190 299 master resync;
#X text 327 505 Main Out;
#X text 375 472 Main Mix;
#X floatatom 816 -67 5 0 0 0 - - -;
#X text 676 -90 VOLUME;
#X text 747 -90 FX P1;
#X text 816 -90 FX P2;
#X text 868 -90 RECORD;
#X obj 865 -45 ctlin 20;
#X floatatom 869 -19 5 0 0 0 - - -;
#X obj 864 6 tgl 30 0 empty empty empty 17 7 0 10 -1 -258113 -1 0 127
;
#X text 868 -70 P1;
#X obj 41 192 unsig~ 20;
#X msg 462 -80 drumloop1.aif;
#X obj 447 -32 stevelooper;
#X obj 411 -30 bng 15 250 50 0 empty empty empty 17 7 0 10 -262144
-1 -1;
#X text 408 -52 local restart;
#X text 233 189 load all clips;
#X floatatom 553 158 5 0 0 0 - - -;
#X text 592 159 beats;
#X floatatom 676 200 5 0 0 0 - - -;
#X obj 678 222 hsl 50 15 0 127 0 0 empty empty empty -2 -8 0 10 -4034
-1 -1 3974 1;
#X obj 458 213 hsl 128 15 0 1 0 0 empty empty empty -2 -8 0 10 -260097
-1 -1 2447 1;
#X floatatom 749 227 5 0 0 0 - - -;
#X obj 750 250 hsl 50 15 0 127 0 0 empty empty empty -2 -8 0 10 -176105
-1 -1 4900 1;
#X floatatom 813 155 5 0 0 0 - - -;
#X text 673 132 VOLUME;
#X text 744 132 FX P1;
#X text 813 132 FX P2;
#X text 865 132 RECORD;
#X floatatom 866 203 5 0 0 0 - - -;
#X obj 861 228 tgl 30 0 empty empty empty 17 7 0 10 -1 -258113 -1 0
127;
#X obj 444 190 stevelooper;
#X obj 408 192 bng 15 250 50 0 empty empty empty 17 7 0 10 -262144
-1 -1;
#X text 405 170 local restart;
#X msg 459 142 drumloop2.aif;
#X text 675 155 E2;
#X obj 676 175 ctlin 7 2;
#X obj 749 202 ctlin 7 6;
#X text 748 182 E6;
#X text 865 152 P2;
#X obj 862 177 ctlin 21;
#X connect 0 0 4 0;
#X connect 0 0 56 2;
#X connect 0 0 74 2;
#X connect 1 0 11 0;
#X connect 1 0 55 0;
#X connect 1 0 77 0;
#X connect 2 0 56 3;
#X connect 3 0 14 0;
#X connect 3 0 54 0;
#X connect 4 0 9 0;
#X connect 6 0 4 1;
#X connect 9 0 3 0;
#X connect 11 0 56 4;
#X connect 11 0 57 0;
#X connect 11 0 75 0;
#X connect 12 0 10 0;
#X connect 13 0 11 0;
#X connect 14 0 15 0;
#X connect 15 0 13 0;
#X connect 18 0 22 0;
#X connect 19 0 18 0;
#X connect 20 0 19 0;
#X connect 23 0 24 0;
#X connect 24 0 26 0;
#X connect 26 0 56 5;
#X connect 28 0 30 0;
#X connect 28 0 29 0;
#X connect 28 0 4 0;
#X connect 28 0 37 0;
#X connect 29 0 6 0;
#X connect 29 0 2 0;
#X connect 30 0 0 0;
#X connect 31 0 34 0;
#X connect 33 0 31 0;
#X connect 34 0 56 6;
#X connect 36 0 35 0;
#X connect 36 0 35 1;
#X connect 37 0 40 0;
#X connect 41 0 24 0;
#X connect 41 0 31 0;
#X connect 41 0 62 0;
#X connect 41 0 65 0;
#X connect 45 0 56 7;
#X connect 50 0 51 0;
#X connect 51 0 52 0;
#X connect 52 0 56 1;
#X connect 54 0 12 0;
#X connect 55 0 56 0;
#X connect 56 0 36 0;
#X connect 56 1 27 0;
#X connect 57 0 56 4;
#X connect 60 0 74 3;
#X connect 62 0 63 0;
#X connect 63 0 74 5;
#X connect 65 0 66 0;
#X connect 66 0 74 6;
#X connect 67 0 74 7;
#X connect 72 0 73 0;
#X connect 73 0 74 1;
#X connect 74 0 36 1;
#X connect 74 1 64 0;
#X connect 75 0 74 4;
#X connect 77 0 74 0;
#X connect 79 0 62 0;
#X connect 80 0 65 0;
#X connect 83 0 72 0;
