#N canvas 336 53 886 667 10;
#X floatatom 51 22 5 0 0 0 - - -;
#X obj 334 20 bng 15 250 50 0 empty empty empty 17 7 0 10 -262144 -1
-1;
#X floatatom 498 25 5 0 0 0 - - -;
#X obj -28 152 phasor~;
#X obj 46 64 expr $f1 / 60 / $f2;
#X text 52 4 BPM;
#X floatatom 91 22 5 0 0 0 - - -;
#X text 92 4 beats;
#X text 2 20 MASTER;
#X floatatom 32 109 5 0 0 0 - - -;
#X obj 60 246 hsl 128 15 0 1 0 0 empty empty empty -2 -8 0 10 -258113
-1 -1 2116 1;
#X obj 41 192 unsig~ 20;
#X obj 295 206 bng 15 250 50 0 empty empty empty 17 7 0 10 -262144
-1 -1;
#X floatatom 47 217 5 0 0 0 - - -;
#X obj -36 343 bng 15 250 50 0 empty empty empty 17 7 0 10 -262144
-1 -1;
#X obj -36 284 edge~;
#X obj -42 199 change~;
#X obj -36 233 expr~ $v1==1;
#X text 356 19 load file;
#X text 537 26 beats;
#X text 289 184 resync;
#X text 167 464 dsp ON/OFF;
#X floatatom 150 543 5 0 0 0 - - -;
#X obj 150 484 dsp;
#X obj 150 464 tgl 15 1 empty dsp_tgl empty 8 -8 0 10 -4034 -1 -1 1
1;
#X text 186 543 % mean-cpu-load;
#X obj 129 461 vsl 10 100 0 127 0 0 empty empty empty 0 -9 0 10 -261682
-1 -1 772 1;
#X obj 676 36 ctlin 7 1;
#X floatatom 676 61 5 0 0 0 - - -;
#X text 675 16 E1;
#X obj 678 83 hsl 50 15 0 127 0 0 empty empty empty -2 -8 0 10 -4034
-1 -1 2469 1;
#X obj 418 100 hsl 128 15 0 1 0 0 empty empty empty -2 -8 0 10 -260097
-1 -1 1950 1;
#X text 677 156 E2;
#X obj 678 176 ctlin 7 2;
#X obj 678 223 hsl 50 15 0 127 0 0 empty empty empty -2 -8 0 10 -4034
-1 -1 2469 1;
#X floatatom 506 161 5 0 0 0 - - -;
#X text 545 162 beats;
#X obj 426 236 hsl 128 15 0 1 0 0 empty empty empty -2 -8 0 10 -260097
-1 -1 3409 1;
#X obj -8 -121 loadbang;
#X msg 112 -103 16;
#X msg 82 -104 100;
#X floatatom 749 88 5 0 0 0 - - -;
#X text 748 43 E5;
#X obj 749 63 ctlin 7 5;
#X obj 750 111 hsl 50 15 0 127 0 0 empty empty empty -2 -8 0 10 -262144
-1 -1 2469 1;
#X floatatom 752 235 5 0 0 0 - - -;
#X text 751 190 E6;
#X obj 752 210 ctlin 7 6;
#X obj 751 258 hsl 50 15 0 127 0 0 empty empty empty -2 -8 0 10 -262144
-1 -1 2469 1;
#X floatatom 678 201 5 0 0 0 - - -;
#X obj 423 210 stevelooper drumloop2.aif;
#X obj 405 74 stevelooper drumloop1.aif;
#X obj 630 524 dac~;
#X obj 626 453 expr~ $v1+$v2;
#X msg 151 -105 64;
#X text 177 -108 init with defaults;
#X connect 0 0 4 0;
#X connect 0 0 50 1;
#X connect 0 0 51 1;
#X connect 1 0 50 0;
#X connect 1 0 51 0;
#X connect 1 0 12 0;
#X connect 2 0 51 2;
#X connect 3 0 11 0;
#X connect 3 0 16 0;
#X connect 4 0 9 0;
#X connect 6 0 4 1;
#X connect 9 0 3 0;
#X connect 11 0 13 0;
#X connect 12 0 50 3;
#X connect 12 0 51 3;
#X connect 13 0 10 0;
#X connect 14 0 12 0;
#X connect 15 0 14 0;
#X connect 16 0 17 0;
#X connect 17 0 15 0;
#X connect 22 0 26 0;
#X connect 23 0 22 0;
#X connect 24 0 23 0;
#X connect 27 0 28 0;
#X connect 28 0 30 0;
#X connect 30 0 51 4;
#X connect 33 0 49 0;
#X connect 34 0 50 4;
#X connect 35 0 50 2;
#X connect 38 0 40 0;
#X connect 38 0 39 0;
#X connect 38 0 4 0;
#X connect 38 0 54 0;
#X connect 39 0 6 0;
#X connect 39 0 2 0;
#X connect 39 0 35 0;
#X connect 40 0 0 0;
#X connect 41 0 44 0;
#X connect 43 0 41 0;
#X connect 44 0 51 5;
#X connect 45 0 48 0;
#X connect 47 0 45 0;
#X connect 48 0 50 5;
#X connect 49 0 34 0;
#X connect 50 0 53 1;
#X connect 50 1 37 0;
#X connect 51 0 53 0;
#X connect 51 1 31 0;
#X connect 53 0 52 0;
#X connect 53 0 52 1;
#X connect 54 0 28 0;
#X connect 54 0 41 0;
#X connect 54 0 49 0;
#X connect 54 0 45 0;
