#N canvas 0 23 1366 667 10;
#X text 355 254 diff left/right;
#X text 379 384 duration;
#X text 638 16 BPM;
#X text 688 15 beats;
#X text 526 36 force eval;
#X text 386 119 restart;
#X obj 85 112 soundfiler;
#X obj 47 305 phasor~;
#X obj 1133 536 line~;
#X msg 1142 501 \$1 20;
#X obj 343 321 -;
#X floatatom 343 287 5 0 0 0 - - -;
#X obj 393 286 t f b;
#X text 355 254 diff left/right;
#X obj 30 603 *~;
#X obj 29 411 +~;
#X obj 31 457 *~;
#X obj 31 340 *~;
#X obj 261 1 / 44100;
#X floatatom 344 383 5 0 0 0 - - -;
#X text 379 384 duration;
#X floatatom 272 24 5 0 0 0 - - -;
#X floatatom 507 135 5 0 0 0 - - -;
#X floatatom 642 34 5 0 0 0 - - -;
#X text 638 16 BPM;
#X floatatom 692 33 5 0 0 0 - - -;
#X text 688 15 beats;
#X text 309 23 duration in seconds;
#X obj 83 638 vcf~ 1;
#X floatatom 230 539 5 0 0 0 - - -;
#X obj 263 480 hsl 50 15 0 127 0 0 empty empty empty -2 -8 0 10 -262144
-1 -1 386 1;
#X obj 497 89 expr $f1 / 60 / $f2;
#X obj 506 38 bng 15 250 50 0 empty empty empty 17 7 0 10 -262144 -1
-1;
#X text 526 36 force eval;
#X obj 366 119 bng 15 250 50 0 empty empty empty 17 7 0 10 -262144
-1 -1;
#X msg 347 153 0;
#X text 386 119 restart;
#X obj 570 -86 inlet;
#X obj 207 105 print;
#X obj 45 -23 symbol \$1;
#X obj 31 493 tabread4~ \$0-loop;
#X obj 131 -56 bng 15 250 50 0 empty empty empty 17 7 0 10 -262144
-1 -1;
#X obj 63 -92 inlet;
#X msg 62 37 read -resize \$1 \$2-loop;
#X obj 126 -23 float \$0;
#X obj 55 5 pack s f;
#X text 106 -91 load file;
#X text 616 -86 set BPM;
#X obj 708 -83 inlet;
#X text 749 -85 set beats;
#X obj 890 -82 inlet;
#X text 930 -82 sync restart;
#X obj 627 505 outlet;
#X obj 1035 -82 inlet;
#X text 1078 -83 clip volume;
#X text 671 504 playback position;
#X obj 1184 22 / 127;
#X text 1114 236 left limit;
#X text 1115 218 right limit;
#X obj 612 430 hsl 500 15 0 1 0 0 empty empty playback_position_indicator
-2 -8 0 10 -262130 -1 -1 31413 1;
#X obj 611 238 hsl 500 15 0 1 0 0 empty empty empty -2 -6 0 8 -4032
-1 -1 45700 1;
#X obj 611 221 hsl 500 15 0 1 0 0 empty empty empty -2 -6 0 8 -4032
-1 -1 0 1;
#X text 1114 236 left limit;
#X text 1115 218 right limit;
#N canvas 0 22 450 278 (subpatch) 0;
#X array \$0-loop 458752 float 2;
#X coords 0 1 458752 -1 500 140 1 0 0;
#X restore 609 273 graph;
#X obj 607 463 unsig~ 50;
#X floatatom 276 542 5 0 0 0 - - -;
#X obj 1214 -83 inlet;
#X obj 265 505 expr $f1 * 10000/127;
#X msg 864 174 1;
#X obj 194 667 outlet~;
#X text 1255 -85 fx param1;
#X text 1357 -83 fx param2;
#X obj 1332 -84 inlet;
#X connect 6 0 16 1;
#X connect 6 0 18 0;
#X connect 7 0 17 0;
#X connect 8 0 14 1;
#X connect 9 0 8 0;
#X connect 10 0 17 1;
#X connect 10 0 19 0;
#X connect 11 0 10 0;
#X connect 12 0 10 1;
#X connect 12 0 15 1;
#X connect 12 1 11 0;
#X connect 14 0 28 0;
#X connect 15 0 16 0;
#X connect 15 0 65 0;
#X connect 16 0 40 0;
#X connect 17 0 15 0;
#X connect 18 0 21 0;
#X connect 22 0 7 0;
#X connect 23 0 31 0;
#X connect 25 0 31 1;
#X connect 25 0 32 0;
#X connect 28 0 70 0;
#X connect 29 0 28 1;
#X connect 30 0 68 0;
#X connect 31 0 22 0;
#X connect 32 0 31 0;
#X connect 34 0 35 0;
#X connect 35 0 7 1;
#X connect 37 0 23 0;
#X connect 39 0 45 0;
#X connect 40 0 14 0;
#X connect 41 0 39 0;
#X connect 41 0 44 0;
#X connect 41 0 32 0;
#X connect 41 0 69 0;
#X connect 42 0 41 0;
#X connect 43 0 6 0;
#X connect 43 0 38 0;
#X connect 44 0 45 1;
#X connect 45 0 43 0;
#X connect 48 0 25 0;
#X connect 50 0 34 0;
#X connect 53 0 56 0;
#X connect 56 0 9 0;
#X connect 60 0 11 0;
#X connect 61 0 12 0;
#X connect 65 0 59 0;
#X connect 65 0 52 0;
#X connect 66 0 28 2;
#X connect 67 0 30 0;
#X connect 68 0 29 0;
#X connect 69 0 60 0;
#X connect 73 0 66 0;
