#N canvas 108 40 1197 702 10;
#X text 481 469 diff left/right;
#X text 505 599 duration;
#X text 638 16 BPM;
#X text 688 15 beats;
#X text 673 69 force eval;
#X text 146 249 restart;
#X obj 35 112 soundfiler;
#X obj 47 305 phasor~;
#X obj 1133 536 line~;
#X msg 1142 501 \$1 20;
#X obj 469 536 -;
#X floatatom 469 502 5 0 0 0 - - -;
#X obj 519 501 t f b;
#X text 481 469 diff left/right;
#X obj 30 603 *~;
#X obj 29 411 +~;
#X obj 31 457 *~;
#X obj 31 340 *~;
#X floatatom 470 598 5 0 0 0 - - -;
#X text 505 599 duration;
#X floatatom 764 118 5 0 0 0 - - -;
#X floatatom 642 34 5 0 0 0 - - -;
#X text 638 16 BPM;
#X floatatom 692 33 5 0 0 0 - - -;
#X text 688 15 beats;
#X obj 83 638 vcf~ 1;
#X floatatom 230 539 5 0 0 0 - - -;
#X obj 263 480 hsl 50 15 0 127 0 0 empty empty empty -2 -8 0 10 -262144
-1 -1 2701 1;
#X obj 653 71 bng 15 250 50 0 empty empty empty 17 7 0 10 -262144 -1
-1;
#X text 673 69 force eval;
#X obj 126 249 bng 15 250 50 0 empty empty empty 17 7 0 10 -262144
-1 -1;
#X msg 107 283 0;
#X text 146 249 restart;
#X obj 570 -86 inlet;
#X obj 30 65 print;
#X obj 31 493 tabread4~ \$0-loop;
#X obj 64 -58 bng 15 250 50 0 empty empty empty 17 7 0 10 -262144 -1
-1;
#X msg 12 37 read -resize \$1 \$2-loop;
#X obj 96 -23 float \$0;
#X obj 25 5 pack s f;
#X text 84 -100 load file;
#X text 616 -86 set BPM;
#X obj 708 -83 inlet;
#X text 749 -85 set beats;
#X obj 890 -82 inlet;
#X text 930 -82 sync restart;
#X obj 627 505 outlet;
#X obj 1035 -82 inlet;
#X text 1078 -83 clip volume;
#X text 671 504 playback position;
#X obj 1184 22 / 127;
#X text 1114 236 left limit;
#X text 1115 218 right limit;
#X obj 612 430 hsl 500 15 0 1 0 0 empty empty playback_position_indicator
-2 -8 0 10 -262130 -1 -1 19108 1;
#X obj 611 238 hsl 500 15 0 1 0 0 empty empty empty -2 -6 0 8 -4032
-1 -1 49900 1;
#X obj 611 221 hsl 500 15 0 1 0 0 empty empty empty -2 -6 0 8 -4032
-1 -1 0 1;
#X text 1114 236 left limit;
#X text 1115 218 right limit;
#N canvas 0 22 450 278 (subpatch) 0;
#X array \$0-loop 423360 float 2;
#X coords 0 1 423360 -1 500 140 1 0 0;
#X restore 609 273 graph;
#X obj 597 469 unsig~ 50;
#X floatatom 276 542 5 0 0 0 - - -;
#X obj 1214 -83 inlet;
#X obj 265 505 expr $f1 * 10000/127;
#X msg 864 174 1;
#X obj 194 667 outlet~;
#X text 1255 -85 fx param1;
#X text 1357 -83 fx param2;
#X obj 1332 -84 inlet;
#X obj 15 -23 symbol;
#X obj 46 -99 inlet loadfiile;
#X obj 241 -99 inlet record;
#X obj 255 -71 tgl 15 0 empty empty empty 17 7 0 10 -262144 -1 -1 0
127;
#X obj 416 205 tabwrite~ \$0-loop;
#X obj 363 162 adc~;
#X msg 330 113 stop;
#X floatatom 447 12 10 0 0 0 - - -;
#X obj 644 94 expr $f1 / 60 / $f2;
#X obj 470 -14 expr 60 / $f1 * $f2 * 44100;
#X obj 295 -19 bng 15 250 50 0 empty empty empty 17 7 0 10 -262144
-1 -1;
#X msg 388 41 resize \$1;
#X obj 398 73 send \$0-loop;
#X obj 267 -47 sel 127;
#X obj 405 156 spigot;
#X msg 277 114 start;
#X text 382 -11 resize exactly;
#X msg 247 -2 0;
#X obj 264 331 edge~;
#X obj 300 253 expr~ $v1==0;
#X obj 270 295 change~;
#X obj 167 114 bng 15 250 50 0 empty empty empty 17 7 0 10 -262144
-1 -1;
#X obj 211 169 + 1;
#X floatatom 241 205 5 0 0 0 - - -;
#X obj 266 65 route 0 1 2;
#X obj 285 91 bng 15 250 50 0 empty empty empty 17 7 0 10 -262144 -1
-1;
#X obj 319 90 bng 15 250 50 0 empty empty empty 17 7 0 10 -262144 -1
-1;
#X obj 208 134 f;
#X obj 244 227 % 3;
#X floatatom 278 223 5 0 0 0 - - -;
#X connect 6 0 16 1;
#X connect 7 0 17 0;
#X connect 8 0 14 1;
#X connect 9 0 8 0;
#X connect 10 0 17 1;
#X connect 10 0 18 0;
#X connect 11 0 10 0;
#X connect 12 0 10 1;
#X connect 12 0 15 1;
#X connect 12 1 11 0;
#X connect 14 0 25 0;
#X connect 15 0 16 0;
#X connect 15 0 59 0;
#X connect 15 0 87 0;
#X connect 16 0 35 0;
#X connect 17 0 15 0;
#X connect 20 0 7 0;
#X connect 21 0 76 0;
#X connect 21 0 77 0;
#X connect 23 0 28 0;
#X connect 23 0 76 1;
#X connect 23 0 77 1;
#X connect 25 0 64 0;
#X connect 26 0 25 1;
#X connect 27 0 62 0;
#X connect 28 0 76 0;
#X connect 30 0 31 0;
#X connect 31 0 7 1;
#X connect 33 0 21 0;
#X connect 35 0 14 0;
#X connect 36 0 38 0;
#X connect 36 0 28 0;
#X connect 36 0 63 0;
#X connect 36 0 68 0;
#X connect 37 0 6 0;
#X connect 37 0 34 0;
#X connect 38 0 39 1;
#X connect 39 0 37 0;
#X connect 42 0 23 0;
#X connect 44 0 30 0;
#X connect 47 0 50 0;
#X connect 50 0 9 0;
#X connect 54 0 11 0;
#X connect 55 0 12 0;
#X connect 59 0 53 0;
#X connect 59 0 46 0;
#X connect 60 0 25 2;
#X connect 61 0 27 0;
#X connect 62 0 26 0;
#X connect 63 0 54 0;
#X connect 67 0 60 0;
#X connect 68 0 39 0;
#X connect 69 0 36 0;
#X connect 69 0 68 0;
#X connect 70 0 71 0;
#X connect 71 0 81 0;
#X connect 71 0 82 1;
#X connect 73 0 72 0;
#X connect 74 0 82 0;
#X connect 75 0 79 0;
#X connect 76 0 20 0;
#X connect 77 0 75 0;
#X connect 78 0 77 0;
#X connect 78 0 85 0;
#X connect 79 0 80 0;
#X connect 81 0 78 0;
#X connect 82 0 72 0;
#X connect 83 0 82 0;
#X connect 85 0 91 0;
#X connect 85 0 95 1;
#X connect 86 0 89 0;
#X connect 87 0 88 0;
#X connect 88 0 86 0;
#X connect 89 0 95 0;
#X connect 90 0 91 0;
#X connect 90 0 95 1;
#X connect 91 0 96 0;
#X connect 92 1 93 0;
#X connect 92 2 94 0;
#X connect 93 0 83 0;
#X connect 94 0 74 0;
#X connect 95 0 90 0;
#X connect 96 0 97 0;
#X connect 97 0 92 0;
